# xmcd CD database file
#
# Track frame offsets:
#	150
#	53231
#	92983
#	132457
#	160764
#	194955
#
# Disc length: 3139 seconds
#
# Revision: 0
# Processed by: cddbd v1.5.2PL0 Copyright (c) Steve Scherf et al.
# Submitted via: CDex 1.50
#
DISCID=580c4106
DTITLE=Алексей Козлов и Дмитрий Илугдин - Переосмысленная классика
DYEAR=2012
DGENRE=Jazz
TTITLE0="Две паваны" М.Равель и Г.Форе
TTITLE1="Ноктюрн"- А.Бородин, "Until"- B.Miles, "Улетай на крыльях ветра"-А.Бородин
TTITLE2="Ария Левко", "Песня индийского гостя"-Н.Римский-Корсаков
TTITLE3="В память о холокосте". тема из к/ф "Список Шиндлера"-J.Williams, увертюра к опере "Тангейзер"-Р.Вагнер
TTITLE4=Тема 2ч. 4-й симф.-П.Чайковский, "Гимнопедия №1"-E.Sati
TTITLE5="Lonely Woman"-O.Coleman, "Farandola"-G.Bizet
EXTD=YEAR: 2012
EXTT0=
EXTT1=
EXTT2=
EXTT3=
EXTT4=
EXTT5=
PLAYORDER=
